<mxfile host="app.diagrams.net" agent="Mozilla/5.0 (Windows NT 10.0; Win64; x64) AppleWebKit/537.36 (KHTML, like Gecko) Chrome/131.0.0.0 Safari/537.36" version="25.0.1">
  <diagram name="Page-1" id="qGq6ki4UXwblDDpbONgy">
    <mxGraphModel dx="1105" dy="642" grid="1" gridSize="10" guides="1" tooltips="1" connect="1" arrows="1" fold="1" page="1" pageScale="1" pageWidth="850" pageHeight="1100" math="0" shadow="0">
      <root>
        <mxCell id="0" />
        <mxCell id="1" parent="0" />
        <mxCell id="2nPKzq9Ip9ZL3-l_yJvm-1" value="function()&amp;nbsp; &amp;nbsp; //mostly about the canvas" style="swimlane;fontStyle=1;align=center;verticalAlign=top;childLayout=stackLayout;horizontal=1;startSize=26;horizontalStack=0;resizeParent=1;resizeParentMax=0;resizeLast=0;collapsible=1;marginBottom=0;whiteSpace=wrap;html=1;fillColor=#e1d5e7;strokeColor=#9673a6;" vertex="1" parent="1">
          <mxGeometry x="20" y="10" width="310" height="120" as="geometry" />
        </mxCell>
        <mxCell id="2nPKzq9Ip9ZL3-l_yJvm-2" value="const canvas;&lt;div&gt;const context&amp;nbsp;&lt;br&gt;&lt;div&gt;&lt;br&gt;&lt;/div&gt;&lt;div&gt;&lt;br&gt;&lt;/div&gt;&lt;div&gt;&lt;br&gt;&lt;/div&gt;&lt;div&gt;&lt;br&gt;&lt;/div&gt;&lt;div&gt;&lt;br&gt;&lt;/div&gt;&lt;div&gt;&lt;br&gt;&lt;/div&gt;&lt;div&gt;&lt;br&gt;&lt;/div&gt;&lt;div&gt;&lt;br&gt;&lt;/div&gt;&lt;div&gt;&lt;br&gt;&lt;/div&gt;&lt;div&gt;&lt;br&gt;&lt;/div&gt;&lt;div&gt;&lt;br&gt;&lt;/div&gt;&lt;/div&gt;" style="text;strokeColor=none;fillColor=none;align=left;verticalAlign=top;spacingLeft=4;spacingRight=4;overflow=hidden;rotatable=0;points=[[0,0.5],[1,0.5]];portConstraint=eastwest;whiteSpace=wrap;html=1;" vertex="1" parent="2nPKzq9Ip9ZL3-l_yJvm-1">
          <mxGeometry y="26" width="310" height="44" as="geometry" />
        </mxCell>
        <mxCell id="2nPKzq9Ip9ZL3-l_yJvm-3" value="" style="line;strokeWidth=1;fillColor=none;align=left;verticalAlign=middle;spacingTop=-1;spacingLeft=3;spacingRight=3;rotatable=0;labelPosition=right;points=[];portConstraint=eastwest;strokeColor=inherit;" vertex="1" parent="2nPKzq9Ip9ZL3-l_yJvm-1">
          <mxGeometry y="70" width="310" height="8" as="geometry" />
        </mxCell>
        <mxCell id="2nPKzq9Ip9ZL3-l_yJvm-4" value="&lt;div&gt;window.addEventListener(&#39;resize&#39;, resizeCanvas, flase);&lt;/div&gt;&lt;div&gt;resizeCanvas()&lt;/div&gt;" style="text;strokeColor=none;fillColor=none;align=left;verticalAlign=top;spacingLeft=4;spacingRight=4;overflow=hidden;rotatable=0;points=[[0,0.5],[1,0.5]];portConstraint=eastwest;whiteSpace=wrap;html=1;" vertex="1" parent="2nPKzq9Ip9ZL3-l_yJvm-1">
          <mxGeometry y="78" width="310" height="42" as="geometry" />
        </mxCell>
        <mxCell id="2nPKzq9Ip9ZL3-l_yJvm-5" value="Class Sprite" style="swimlane;fontStyle=1;align=center;verticalAlign=top;childLayout=stackLayout;horizontal=1;startSize=26;horizontalStack=0;resizeParent=1;resizeParentMax=0;resizeLast=0;collapsible=1;marginBottom=0;whiteSpace=wrap;html=1;fillColor=#d5e8d4;strokeColor=#82b366;" vertex="1" parent="1">
          <mxGeometry x="30" y="200" width="260" height="730" as="geometry" />
        </mxCell>
        <mxCell id="2nPKzq9Ip9ZL3-l_yJvm-6" value="this.position&lt;div&gt;velocity&lt;/div&gt;&lt;div&gt;maxSpeed&lt;/div&gt;&lt;div&gt;maxForce&lt;br&gt;&lt;div&gt;sprite_name&lt;/div&gt;&lt;div&gt;animations&lt;/div&gt;&lt;div&gt;cur_frame&lt;/div&gt;&lt;div&gt;cur_action&lt;/div&gt;&lt;div&gt;last_action&lt;/div&gt;&lt;div&gt;sprite_data&lt;/div&gt;&lt;div&gt;scale&lt;/div&gt;&lt;div&gt;acceleration&lt;/div&gt;&lt;div&gt;clipboard&lt;/div&gt;&lt;div&gt;cur_frame_h&lt;/div&gt;&lt;div&gt;cur_frame_w&lt;/div&gt;&lt;div&gt;pathStrSplit&lt;/div&gt;&lt;div&gt;fileName&lt;/div&gt;&lt;div&gt;directoryName&lt;/div&gt;&lt;div&gt;img_path&lt;/div&gt;&lt;div&gt;sprite_this&lt;br&gt;&lt;div&gt;&lt;br&gt;&lt;/div&gt;&lt;div&gt;&lt;br&gt;&lt;/div&gt;&lt;div&gt;&lt;br&gt;&lt;/div&gt;&lt;div&gt;&lt;br&gt;&lt;/div&gt;&lt;div&gt;&lt;br&gt;&lt;/div&gt;&lt;div&gt;&lt;br&gt;&lt;/div&gt;&lt;div&gt;&lt;br&gt;&lt;/div&gt;&lt;div&gt;&lt;br&gt;&lt;/div&gt;&lt;div&gt;&lt;br&gt;&lt;/div&gt;&lt;div&gt;&lt;br&gt;&lt;/div&gt;&lt;div&gt;&lt;br&gt;&lt;/div&gt;&lt;/div&gt;&lt;/div&gt;" style="text;strokeColor=none;fillColor=none;align=left;verticalAlign=top;spacingLeft=4;spacingRight=4;overflow=hidden;rotatable=0;points=[[0,0.5],[1,0.5]];portConstraint=eastwest;whiteSpace=wrap;html=1;" vertex="1" parent="2nPKzq9Ip9ZL3-l_yJvm-5">
          <mxGeometry y="26" width="260" height="304" as="geometry" />
        </mxCell>
        <mxCell id="2nPKzq9Ip9ZL3-l_yJvm-7" value="" style="line;strokeWidth=1;fillColor=none;align=left;verticalAlign=middle;spacingTop=-1;spacingLeft=3;spacingRight=3;rotatable=0;labelPosition=right;points=[];portConstraint=eastwest;strokeColor=inherit;" vertex="1" parent="2nPKzq9Ip9ZL3-l_yJvm-5">
          <mxGeometry y="330" width="260" height="8" as="geometry" />
        </mxCell>
        <mxCell id="2nPKzq9Ip9ZL3-l_yJvm-8" value="constructor(jsonfile, x, y, sprite_name);&amp;nbsp;&lt;div&gt;draw_or_load_the_damn_thing();&lt;/div&gt;&lt;div&gt;idle();&lt;/div&gt;&lt;div&gt;walk_SE();&lt;/div&gt;&lt;div&gt;walk_NE();&lt;/div&gt;&lt;div&gt;walk_SW();&lt;/div&gt;&lt;div&gt;walk_NW();&lt;/div&gt;&lt;div&gt;walk_S();&lt;/div&gt;&lt;div&gt;walk_E();&lt;/div&gt;&lt;div&gt;walk_W();&lt;/div&gt;&lt;div&gt;walk_N();&lt;/div&gt;&lt;div&gt;set_action(new_action);&lt;/div&gt;&lt;div&gt;on_bound_hit_north();&lt;/div&gt;&lt;div&gt;on_bound_hit_south();&lt;/div&gt;&lt;div&gt;on_bound_hit_east();&lt;/div&gt;&lt;div&gt;on_bound_hit_west();&lt;/div&gt;&lt;div&gt;set_direction(direction);&lt;/div&gt;&lt;div&gt;set_direction_by_vel();&lt;/div&gt;&lt;div&gt;on_sprite_collision(sprite);&lt;/div&gt;&lt;div&gt;did_i_hit_a_sprite();&lt;/div&gt;&lt;div&gt;update();&lt;/div&gt;&lt;div&gt;flock(boids);&lt;/div&gt;&lt;div&gt;separation(boids);&lt;/div&gt;&lt;div&gt;cohesion(boids);&lt;/div&gt;&lt;div&gt;align(boids);&lt;/div&gt;&lt;div&gt;run();&lt;/div&gt;" style="text;strokeColor=none;fillColor=none;align=left;verticalAlign=top;spacingLeft=4;spacingRight=4;overflow=hidden;rotatable=0;points=[[0,0.5],[1,0.5]];portConstraint=eastwest;whiteSpace=wrap;html=1;" vertex="1" parent="2nPKzq9Ip9ZL3-l_yJvm-5">
          <mxGeometry y="338" width="260" height="392" as="geometry" />
        </mxCell>
        <mxCell id="2nPKzq9Ip9ZL3-l_yJvm-9" value="&lt;b&gt;Global or Main&lt;/b&gt;" style="swimlane;fontStyle=0;childLayout=stackLayout;horizontal=1;startSize=26;fillColor=#f5f5f5;horizontalStack=0;resizeParent=1;resizeParentMax=0;resizeLast=0;collapsible=1;marginBottom=0;whiteSpace=wrap;html=1;fontColor=#333333;strokeColor=#666666;" vertex="1" parent="1">
          <mxGeometry x="440" y="10" width="280" height="220" as="geometry" />
        </mxCell>
        <mxCell id="2nPKzq9Ip9ZL3-l_yJvm-10" value="var current_state" style="text;strokeColor=none;fillColor=none;align=left;verticalAlign=top;spacingLeft=4;spacingRight=4;overflow=hidden;rotatable=0;points=[[0,0.5],[1,0.5]];portConstraint=eastwest;whiteSpace=wrap;html=1;" vertex="1" parent="2nPKzq9Ip9ZL3-l_yJvm-9">
          <mxGeometry y="26" width="280" height="26" as="geometry" />
        </mxCell>
        <mxCell id="2nPKzq9Ip9ZL3-l_yJvm-11" value="addEventListener(&#39;keydown&#39;); //sets current_state" style="text;strokeColor=none;fillColor=none;align=left;verticalAlign=top;spacingLeft=4;spacingRight=4;overflow=hidden;rotatable=0;points=[[0,0.5],[1,0.5]];portConstraint=eastwest;whiteSpace=wrap;html=1;" vertex="1" parent="2nPKzq9Ip9ZL3-l_yJvm-9">
          <mxGeometry y="52" width="280" height="26" as="geometry" />
        </mxCell>
        <mxCell id="2nPKzq9Ip9ZL3-l_yJvm-12" value="addEventListener(&#39;keyup&#39;); // current_state = &quot;Idle&quot;;&lt;div&gt;&lt;br&gt;&lt;/div&gt;&lt;div&gt;do_i_need_to_redraw&lt;/div&gt;&lt;div&gt;background_img&lt;/div&gt;&lt;div&gt;&lt;br&gt;&lt;/div&gt;&lt;div&gt;redraw_background();&lt;/div&gt;&lt;div&gt;run_loop();&lt;/div&gt;&lt;div&gt;setup();&lt;/div&gt;&lt;div&gt;$(document).ready(function());&lt;br&gt;&lt;div&gt;&lt;br&gt;&lt;/div&gt;&lt;div&gt;&lt;br&gt;&lt;/div&gt;&lt;/div&gt;" style="text;strokeColor=none;fillColor=none;align=left;verticalAlign=top;spacingLeft=4;spacingRight=4;overflow=hidden;rotatable=0;points=[[0,0.5],[1,0.5]];portConstraint=eastwest;whiteSpace=wrap;html=1;" vertex="1" parent="2nPKzq9Ip9ZL3-l_yJvm-9">
          <mxGeometry y="78" width="280" height="142" as="geometry" />
        </mxCell>
        <mxCell id="2nPKzq9Ip9ZL3-l_yJvm-13" value="Class Key_Control_Sprite extends Sprite" style="swimlane;fontStyle=1;align=center;verticalAlign=top;childLayout=stackLayout;horizontal=1;startSize=26;horizontalStack=0;resizeParent=1;resizeParentMax=0;resizeLast=0;collapsible=1;marginBottom=0;whiteSpace=wrap;html=1;fillColor=#d5e8d4;strokeColor=#82b366;" vertex="1" parent="1">
          <mxGeometry x="420" y="280" width="270" height="120" as="geometry" />
        </mxCell>
        <mxCell id="2nPKzq9Ip9ZL3-l_yJvm-14" value="&lt;div&gt;&lt;div&gt;same variables as Sprite&lt;/div&gt;&lt;div&gt;&lt;b&gt;&lt;font color=&quot;#990000&quot;&gt;THIS CLASS CURRENTLY NOT USED!!&lt;br&gt;&lt;/font&gt;&lt;/b&gt;&lt;div&gt;&lt;br&gt;&lt;/div&gt;&lt;div&gt;&lt;br&gt;&lt;/div&gt;&lt;div&gt;&lt;br&gt;&lt;/div&gt;&lt;div&gt;&lt;br&gt;&lt;/div&gt;&lt;div&gt;&lt;br&gt;&lt;/div&gt;&lt;div&gt;&lt;br&gt;&lt;/div&gt;&lt;div&gt;&lt;br&gt;&lt;/div&gt;&lt;div&gt;&lt;br&gt;&lt;/div&gt;&lt;div&gt;&lt;br&gt;&lt;/div&gt;&lt;div&gt;&lt;br&gt;&lt;/div&gt;&lt;div&gt;&lt;br&gt;&lt;/div&gt;&lt;/div&gt;&lt;/div&gt;" style="text;strokeColor=none;fillColor=none;align=left;verticalAlign=top;spacingLeft=4;spacingRight=4;overflow=hidden;rotatable=0;points=[[0,0.5],[1,0.5]];portConstraint=eastwest;whiteSpace=wrap;html=1;" vertex="1" parent="2nPKzq9Ip9ZL3-l_yJvm-13">
          <mxGeometry y="26" width="270" height="34" as="geometry" />
        </mxCell>
        <mxCell id="2nPKzq9Ip9ZL3-l_yJvm-15" value="" style="line;strokeWidth=1;fillColor=none;align=left;verticalAlign=middle;spacingTop=-1;spacingLeft=3;spacingRight=3;rotatable=0;labelPosition=right;points=[];portConstraint=eastwest;strokeColor=inherit;" vertex="1" parent="2nPKzq9Ip9ZL3-l_yJvm-13">
          <mxGeometry y="60" width="270" height="8" as="geometry" />
        </mxCell>
        <mxCell id="2nPKzq9Ip9ZL3-l_yJvm-16" value="&lt;div&gt;run(); //sets individual direction and super.run();&lt;/div&gt;&lt;div&gt;on_bound_hit_north(); //does parent function.&lt;/div&gt;&lt;div&gt;&lt;br&gt;&lt;/div&gt;" style="text;strokeColor=none;fillColor=none;align=left;verticalAlign=top;spacingLeft=4;spacingRight=4;overflow=hidden;rotatable=0;points=[[0,0.5],[1,0.5]];portConstraint=eastwest;whiteSpace=wrap;html=1;" vertex="1" parent="2nPKzq9Ip9ZL3-l_yJvm-13">
          <mxGeometry y="68" width="270" height="52" as="geometry" />
        </mxCell>
        <mxCell id="2nPKzq9Ip9ZL3-l_yJvm-26" value="" style="endArrow=none;html=1;rounded=0;fillColor=#f8cecc;strokeColor=#b85450;" edge="1" parent="2nPKzq9Ip9ZL3-l_yJvm-13">
          <mxGeometry width="50" height="50" relative="1" as="geometry">
            <mxPoint x="-10" y="140" as="sourcePoint" />
            <mxPoint x="300" y="-10" as="targetPoint" />
          </mxGeometry>
        </mxCell>
        <mxCell id="2nPKzq9Ip9ZL3-l_yJvm-28" value="Text" style="edgeLabel;html=1;align=center;verticalAlign=middle;resizable=0;points=[];" vertex="1" connectable="0" parent="2nPKzq9Ip9ZL3-l_yJvm-26">
          <mxGeometry x="0.2994" y="-1" relative="1" as="geometry">
            <mxPoint y="1" as="offset" />
          </mxGeometry>
        </mxCell>
        <mxCell id="2nPKzq9Ip9ZL3-l_yJvm-18" value="Bouncy extends Sprite" style="swimlane;fontStyle=1;align=center;verticalAlign=top;childLayout=stackLayout;horizontal=1;startSize=26;horizontalStack=0;resizeParent=1;resizeParentMax=0;resizeLast=0;collapsible=1;marginBottom=0;whiteSpace=wrap;html=1;fillColor=#d5e8d4;strokeColor=#82b366;" vertex="1" parent="1">
          <mxGeometry x="420" y="450" width="270" height="210" as="geometry" />
        </mxCell>
        <mxCell id="2nPKzq9Ip9ZL3-l_yJvm-19" value="&lt;div&gt;&lt;div&gt;same variables as Sprite&lt;/div&gt;&lt;div&gt;var direction&lt;/div&gt;&lt;div&gt;&lt;br&gt;&lt;/div&gt;&lt;div&gt;&lt;div&gt;&lt;br&gt;&lt;/div&gt;&lt;div&gt;&lt;br&gt;&lt;/div&gt;&lt;div&gt;&lt;br&gt;&lt;/div&gt;&lt;div&gt;&lt;br&gt;&lt;/div&gt;&lt;div&gt;&lt;br&gt;&lt;/div&gt;&lt;div&gt;&lt;br&gt;&lt;/div&gt;&lt;div&gt;&lt;br&gt;&lt;/div&gt;&lt;/div&gt;&lt;/div&gt;" style="text;strokeColor=none;fillColor=none;align=left;verticalAlign=top;spacingLeft=4;spacingRight=4;overflow=hidden;rotatable=0;points=[[0,0.5],[1,0.5]];portConstraint=eastwest;whiteSpace=wrap;html=1;" vertex="1" parent="2nPKzq9Ip9ZL3-l_yJvm-18">
          <mxGeometry y="26" width="270" height="54" as="geometry" />
        </mxCell>
        <mxCell id="2nPKzq9Ip9ZL3-l_yJvm-20" value="" style="line;strokeWidth=1;fillColor=none;align=left;verticalAlign=middle;spacingTop=-1;spacingLeft=3;spacingRight=3;rotatable=0;labelPosition=right;points=[];portConstraint=eastwest;strokeColor=inherit;" vertex="1" parent="2nPKzq9Ip9ZL3-l_yJvm-18">
          <mxGeometry y="80" width="270" height="8" as="geometry" />
        </mxCell>
        <mxCell id="2nPKzq9Ip9ZL3-l_yJvm-21" value="&lt;div&gt;constructor(jsonfile, x, y, sprite_name);&lt;/div&gt;&lt;div&gt;getDirection(); //returns direction&lt;/div&gt;&lt;div&gt;run() //literally just super.run()&lt;/div&gt;&lt;div&gt;on_bound_hit_north(); //parent and redirects&lt;/div&gt;&lt;div&gt;on_bound_hit_south(); //parent and redirects&lt;/div&gt;&lt;div&gt;on_bound_hit_east(); //parent and redirects&lt;/div&gt;&lt;div&gt;on_bound_hit_west(); //parent and redirects&lt;/div&gt;&lt;div&gt;&lt;br&gt;&lt;/div&gt;&lt;div&gt;&lt;br&gt;&lt;/div&gt;" style="text;strokeColor=none;fillColor=none;align=left;verticalAlign=top;spacingLeft=4;spacingRight=4;overflow=hidden;rotatable=0;points=[[0,0.5],[1,0.5]];portConstraint=eastwest;whiteSpace=wrap;html=1;" vertex="1" parent="2nPKzq9Ip9ZL3-l_yJvm-18">
          <mxGeometry y="88" width="270" height="122" as="geometry" />
        </mxCell>
        <mxCell id="2nPKzq9Ip9ZL3-l_yJvm-22" value="Extends" style="endArrow=block;endSize=16;endFill=0;html=1;rounded=0;entryX=0;entryY=0.5;entryDx=0;entryDy=0;exitX=1.004;exitY=0.378;exitDx=0;exitDy=0;exitPerimeter=0;" edge="1" parent="1" source="2nPKzq9Ip9ZL3-l_yJvm-6" target="2nPKzq9Ip9ZL3-l_yJvm-13">
          <mxGeometry width="160" relative="1" as="geometry">
            <mxPoint x="340" y="400" as="sourcePoint" />
            <mxPoint x="460" y="430" as="targetPoint" />
          </mxGeometry>
        </mxCell>
        <mxCell id="2nPKzq9Ip9ZL3-l_yJvm-23" value="Extends" style="endArrow=block;endSize=16;endFill=0;html=1;rounded=0;exitX=0.996;exitY=0.029;exitDx=0;exitDy=0;exitPerimeter=0;entryX=0;entryY=0.098;entryDx=0;entryDy=0;entryPerimeter=0;" edge="1" parent="1" source="2nPKzq9Ip9ZL3-l_yJvm-8" target="2nPKzq9Ip9ZL3-l_yJvm-21">
          <mxGeometry width="160" relative="1" as="geometry">
            <mxPoint x="300" y="530" as="sourcePoint" />
            <mxPoint x="400" y="550" as="targetPoint" />
          </mxGeometry>
        </mxCell>
        <mxCell id="2nPKzq9Ip9ZL3-l_yJvm-24" value="Use" style="endArrow=open;endSize=12;dashed=1;html=1;rounded=0;exitX=1.004;exitY=0.013;exitDx=0;exitDy=0;exitPerimeter=0;entryX=1;entryY=0.5;entryDx=0;entryDy=0;" edge="1" parent="1" source="2nPKzq9Ip9ZL3-l_yJvm-12" target="2nPKzq9Ip9ZL3-l_yJvm-21">
          <mxGeometry width="160" relative="1" as="geometry">
            <mxPoint x="605" y="430" as="sourcePoint" />
            <mxPoint x="730" y="560" as="targetPoint" />
            <Array as="points">
              <mxPoint x="800" y="90" />
              <mxPoint x="800" y="360" />
              <mxPoint x="800" y="600" />
            </Array>
          </mxGeometry>
        </mxCell>
        <mxCell id="2nPKzq9Ip9ZL3-l_yJvm-27" value="" style="endArrow=none;html=1;rounded=0;fillColor=#f8cecc;strokeColor=#b85450;" edge="1" parent="1">
          <mxGeometry width="50" height="50" relative="1" as="geometry">
            <mxPoint x="400" y="270" as="sourcePoint" />
            <mxPoint x="720" y="410" as="targetPoint" />
          </mxGeometry>
        </mxCell>
        <mxCell id="2nPKzq9Ip9ZL3-l_yJvm-29" value="Use" style="endArrow=open;endSize=12;dashed=1;html=1;rounded=0;entryX=1;entryY=0.5;entryDx=0;entryDy=0;exitX=-0.012;exitY=0.838;exitDx=0;exitDy=0;exitPerimeter=0;" edge="1" parent="1" source="2nPKzq9Ip9ZL3-l_yJvm-10" target="2nPKzq9Ip9ZL3-l_yJvm-2">
          <mxGeometry width="160" relative="1" as="geometry">
            <mxPoint x="390" y="200" as="sourcePoint" />
            <mxPoint x="550" y="200" as="targetPoint" />
          </mxGeometry>
        </mxCell>
      </root>
    </mxGraphModel>
  </diagram>
</mxfile>
